# Blender 4.4.1
# www.blender.org
mtllib nubzuki_right_success.mtl
o Sphere.001
v 0.653281 0.382683 -1.722374
v 0.693520 0.195090 -1.828462
v 0.707106 0.000000 -1.864284
v 0.693520 -0.195090 -1.828462
v 0.392847 0.707107 -1.550096
v 0.461940 0.555570 -1.822719
v 0.513280 0.382683 -2.025297
v 0.544895 0.195090 -2.150044
v 0.555570 0.000000 -2.192166
v 0.544895 -0.195090 -2.150044
v 0.513280 -0.382683 -2.025297
v 0.461940 -0.555570 -1.822719
v 0.270598 0.707107 -1.722374
v 0.318189 0.555570 -2.025297
v 0.353553 0.382683 -2.250390
v 0.375330 0.195090 -2.389001
v 0.382683 0.000000 -2.435804
v 0.375330 -0.195090 -2.389001
v 0.353553 -0.382683 -2.250390
v 0.318189 -0.555570 -2.025297
v 0.137950 0.707107 -1.828462
v 0.162212 0.555570 -2.150044
v 0.180240 0.382683 -2.389001
v 0.191342 0.195090 -2.536150
v 0.195090 0.000000 -2.585835
v 0.191342 -0.195090 -2.536150
v 0.180240 -0.382683 -2.389001
v 0.162212 -0.555570 -2.150044
v -0.000000 0.707107 -1.864284
v -0.000000 0.555570 -2.192166
v 0.000000 0.382683 -2.435804
v -0.000000 0.195090 -2.585836
v -0.000000 0.000000 -2.636494
v -0.000000 -0.195090 -2.585836
v 0.000000 -0.382683 -2.435804
v -0.000000 -0.555570 -2.192166
v -0.000000 -0.707107 -1.864284
v -0.137950 0.707107 -1.828462
v -0.162212 0.555570 -2.150044
v -0.180240 0.382683 -2.389001
v -0.191342 0.195090 -2.536150
v -0.195091 0.000000 -2.585835
v -0.191342 -0.195090 -2.536150
v -0.180240 -0.382683 -2.389001
v -0.162212 -0.555570 -2.150044
v -0.270598 0.707107 -1.722374
v -0.318190 0.555570 -2.025297
v -0.353553 0.382683 -2.250390
v -0.375330 0.195090 -2.389000
v -0.382683 0.000000 -2.435803
v -0.375330 -0.195090 -2.389000
v -0.353553 -0.382683 -2.250390
v -0.318190 -0.555570 -2.025297
v -0.392847 0.707107 -1.550095
v -0.461940 0.555570 -1.822719
v -0.513280 0.382683 -2.025297
v -0.544895 0.195090 -2.150043
v -0.555570 0.000000 -2.192164
v -0.544895 -0.195090 -2.150043
v -0.513280 -0.382683 -2.025297
v -0.461940 -0.555570 -1.822719
v -0.653281 0.382683 -1.722374
v -0.693520 0.195090 -1.828462
v -0.707106 0.000000 -1.864282
v -0.693520 -0.195090 -1.828462
v 0.665668 -0.324934 -1.755032
v 0.754001 0.195090 -1.634162
v 0.764623 0.000000 -1.679507
v 0.725771 -0.195090 -1.724852
v 0.460509 -0.562501 -1.810251
v 0.468447 -0.555570 -1.808640
v 0.408997 0.707107 -1.515153
v 0.587808 0.555570 -1.550375
v 0.304382 -0.652663 -1.831207
v 0.151700 -0.700567 -1.842342
v -0.000000 -0.709651 -1.844453
v 0.086216 -0.707107 -1.843862
v -0.151700 -0.700567 -1.842342
v -0.304383 -0.652663 -1.831207
v -0.460509 -0.562501 -1.810251
v -0.665668 -0.324934 -1.755032
v -0.725771 -0.195090 -1.724852
v -0.764622 0.000000 -1.679507
v -0.754001 0.195090 -1.634162
v -0.694312 0.382683 -1.590559
v -0.587808 0.555570 -1.550375
v -0.408997 0.707107 -1.515153
v -0.468446 -0.555570 -1.808640
v -0.631984 -0.382683 -1.768455
v -0.588076 0.555204 -1.550460
v -0.383148 0.721435 -1.511822
v -0.235276 0.782856 -1.497546
v -0.086215 -0.707107 -1.843862
v -0.112429 0.814463 -1.490200
v -0.000000 0.824259 -1.487923
v 0.112429 0.814463 -1.490200
v 0.235276 0.782856 -1.497546
v 0.631984 -0.382683 -1.768455
v 0.383148 0.721435 -1.511822
v 0.694312 0.382683 -1.590559
v 0.588076 0.555205 -1.550460
vn 0.8206 0.4780 -0.3133
vn 0.9037 0.2530 -0.3455
vn 0.9340 -0.0000 -0.3573
vn 0.9037 -0.2530 -0.3455
vn 0.4720 0.8397 -0.2684
vn 0.6034 0.7194 -0.3440
vn 0.7302 0.5409 -0.4174
vn 0.8291 0.2953 -0.4747
vn 0.8677 -0.0000 -0.4971
vn 0.8291 -0.2953 -0.4747
vn 0.7302 -0.5409 -0.4174
vn 0.6232 -0.6949 -0.3587
vn 0.3433 0.8849 -0.3148
vn 0.4549 0.7861 -0.4184
vn 0.5769 0.6197 -0.5321
vn 0.6866 0.3548 -0.6345
vn 0.7342 -0.0000 -0.6790
vn 0.6866 -0.3548 -0.6345
vn 0.5769 -0.6197 -0.5321
vn 0.4593 -0.7778 -0.4290
vn 0.1822 0.9197 -0.3479
vn 0.2490 0.8430 -0.4769
vn 0.3311 0.6970 -0.6361
vn 0.4177 0.4231 -0.8041
vn 0.4606 -0.0000 -0.8876
vn 0.4177 -0.4231 -0.8041
vn 0.3311 -0.6970 -0.6361
vn 0.2460 -0.8413 -0.4814
vn -0.0000 0.9329 -0.3600
vn -0.0000 0.8661 -0.4999
vn -0.0000 0.7319 -0.6814
vn -0.0000 0.4584 -0.8887
vn -0.0000 -0.0000 -1.0000
vn -0.0000 -0.4584 -0.8887
vn -0.0000 -0.7319 -0.6814
vn -0.0000 -0.8656 -0.5008
vn -0.0000 -0.9622 -0.2722
vn -0.1822 0.9197 -0.3479
vn -0.2490 0.8430 -0.4769
vn -0.3311 0.6970 -0.6361
vn -0.4177 0.4231 -0.8041
vn -0.4606 -0.0000 -0.8876
vn -0.4177 -0.4231 -0.8041
vn -0.3311 -0.6970 -0.6361
vn -0.2460 -0.8413 -0.4814
vn -0.3433 0.8849 -0.3148
vn -0.4549 0.7861 -0.4184
vn -0.5769 0.6197 -0.5321
vn -0.6866 0.3548 -0.6345
vn -0.7342 -0.0000 -0.6790
vn -0.6866 -0.3548 -0.6345
vn -0.5769 -0.6197 -0.5321
vn -0.4593 -0.7778 -0.4290
vn -0.4720 0.8397 -0.2684
vn -0.6034 0.7194 -0.3440
vn -0.7302 0.5409 -0.4174
vn -0.8291 0.2953 -0.4747
vn -0.8677 -0.0000 -0.4971
vn -0.8291 -0.2953 -0.4747
vn -0.7302 -0.5409 -0.4174
vn -0.6232 -0.6949 -0.3587
vn -0.8206 0.4780 -0.3133
vn -0.9037 0.2530 -0.3455
vn -0.9340 -0.0000 -0.3573
vn -0.9037 -0.2530 -0.3455
vn 0.8313 -0.5167 0.2049
vn 0.9608 0.1176 0.2512
vn 0.9641 -0.1146 0.2394
vn 0.9126 -0.3338 0.2361
vn 0.5228 -0.8286 0.2004
vn 0.6626 -0.7167 0.2176
vn 0.6004 0.7431 0.2955
vn 0.7550 0.6025 0.2587
vn 0.3654 -0.9136 0.1785
vn 0.1862 -0.9681 0.1678
vn -0.0000 -0.9493 0.3143
vn 0.0946 -0.9795 0.1781
vn -0.1862 -0.9681 0.1678
vn -0.3654 -0.9136 0.1785
vn -0.5228 -0.8286 0.2004
vn -0.8313 -0.5167 0.2049
vn -0.9126 -0.3338 0.2361
vn -0.9641 -0.1146 0.2394
vn -0.9608 0.1176 0.2512
vn -0.9008 0.3397 0.2705
vn -0.7550 0.6025 0.2587
vn -0.6004 0.7431 0.2955
vn -0.6626 -0.7167 0.2176
vn -0.7830 -0.5910 0.1941
vn -0.8130 0.5205 0.2610
vn -0.4201 0.8515 0.3137
vn -0.3043 0.9050 0.2973
vn -0.0946 -0.9795 0.1781
vn -0.1607 0.9444 0.2869
vn -0.0000 0.9590 0.2834
vn 0.1607 0.9444 0.2869
vn 0.3043 0.9050 0.2973
vn 0.7830 -0.5910 0.1941
vn 0.4201 0.8515 0.3137
vn 0.9008 0.3397 0.2705
vn 0.8130 0.5205 0.2610
vt 0.672222 0.090792
vt 0.691687 0.091183
vt 0.683689 0.057559
vt 0.670483 0.057293
vt 0.675999 0.126249
vt 0.694511 0.126621
vt 0.681670 0.162302
vt 0.692049 0.162510
vt 0.686754 0.186709
vt 0.670848 0.027103
vt 0.699246 0.231151
vt 0.700738 0.231205
vt 0.716495 0.198631
vt 0.689281 0.197648
vt 0.804198 0.456504
vt 0.801239 0.453351
vt 0.799462 0.456775
vt 0.699699 0.232510
vt 0.836958 0.453644
vt 0.813895 0.429063
vt 0.725761 0.092415
vt 0.715785 0.058719
vt 0.729252 0.127877
vt 0.726123 0.163742
vt 0.872462 0.724059
vt 0.900320 0.722153
vt 0.905970 0.688758
vt 0.879728 0.690553
vt 0.870008 0.759446
vt 0.898413 0.757502
vt 0.872462 0.795354
vt 0.900320 0.793448
vt 0.879728 0.830405
vt 0.905970 0.828609
vt 0.891527 0.863250
vt 0.915145 0.861635
vt 0.374202 0.869158
vt 0.382993 0.841905
vt 0.365533 0.837816
vt 0.373043 0.868988
vt 0.787555 0.410779
vt 0.778839 0.437801
vt 0.915145 0.658602
vt 0.891527 0.660218
vt 0.941935 0.860515
vt 0.935737 0.827365
vt 0.392289 0.815514
vt 0.365383 0.807098
vt 0.758974 0.399519
vt 0.754533 0.428226
vt 0.935737 0.687514
vt 0.941935 0.657482
vt 0.931921 0.720831
vt 0.930632 0.756155
vt 0.931921 0.792127
vt 0.965429 0.755457
vt 0.966049 0.720146
vt 0.966049 0.791442
vt 0.967885 0.826719
vt 0.970867 0.859934
vt 0.396518 0.804286
vt 0.400519 0.788893
vt 0.372598 0.778015
vt 0.729252 0.395717
vt 0.729256 0.424993
vt 0.402193 0.789543
vt 0.967885 0.686868
vt 0.970867 0.656901
vt 0.870012 0.000000
vt 0.840290 0.003801
vt 0.844739 0.032507
vt 0.870016 0.029275
vt 0.719160 0.777800
vt 0.724835 0.792544
vt 0.720834 0.777150
vt 0.366614 0.574543
vt 0.399902 0.573916
vt 0.399009 0.543962
vt 0.369051 0.544526
vt 0.365383 0.607849
vt 0.400721 0.607183
vt 0.365405 0.643165
vt 0.401435 0.642486
vt 0.366679 0.679133
vt 0.402017 0.678467
vt 0.369156 0.714371
vt 0.402444 0.713744
vt 0.372741 0.747526
vt 0.402699 0.746961
vt 0.437334 0.642486
vt 0.435930 0.607183
vt 0.437225 0.678467
vt 0.435609 0.713744
vt 0.432547 0.746961
vt 0.405076 0.775487
vt 0.432763 0.766021
vt 0.811709 0.015059
vt 0.820433 0.042082
vt 0.433068 0.573916
vt 0.428857 0.543962
vt 0.461056 0.748879
vt 0.461138 0.747526
vt 0.785368 0.033342
vt 0.798032 0.057630
vt 0.464836 0.574543
vt 0.457448 0.544526
vt 0.469655 0.607849
vt 0.471720 0.643165
vt 0.470951 0.679133
vt 0.467378 0.714371
vt 0.501897 0.680438
vt 0.503272 0.644495
vt 0.462493 0.747583
vt 0.500601 0.609154
vt 0.493987 0.575772
vt 0.011475 0.192773
vt 0.012064 0.168265
vt 0.003883 0.168830
vt 0.014590 0.132057
vt 0.000000 0.133065
vt 0.018692 0.096442
vt 0.003351 0.097501
vt 0.024215 0.062788
vt 0.013807 0.063507
vt 0.762304 0.057922
vt 0.795072 0.060784
vt 0.492094 0.715414
vt 0.498181 0.704776
vt 0.483705 0.545697
vt 0.483656 0.545632
vt 0.030931 0.032453
vt 0.799809 0.061055
vt 0.826906 0.062215
vt 0.377296 0.777322
vt 0.393194 0.777009
vt 0.849417 0.062813
vt 0.870018 0.062998
vt 0.729259 0.458716
vt 0.749860 0.458531
vt 0.772369 0.457934
vt 0.699707 0.028083
vt 0.670851 0.027040
vt 0.266130 0.436819
vt 0.282021 0.408462
vt 0.290539 0.396044
vt 0.329409 0.359594
vt 0.331249 0.358155
vt 0.366569 0.339615
vt 0.400309 0.329922
vt 0.414607 0.328633
vt 0.433372 0.328170
vt 0.452103 0.328741
vt 0.466318 0.330111
vt 0.499509 0.339975
vt 0.533800 0.358643
vt 0.535563 0.360086
vt 0.572487 0.396555
vt 0.580367 0.408943
vt 0.594824 0.437202
vt 0.605341 0.480760
vt 0.604694 0.525720
vt 0.592364 0.570362
vt 0.568351 0.612722
vt 0.568289 0.612813
vt 0.525777 0.651144
vt 0.519517 0.654828
vt 0.483392 0.670758
vt 0.453120 0.679060
vt 0.425356 0.681694
vt 0.397683 0.679208
vt 0.367703 0.671052
vt 0.332126 0.655256
vt 0.325994 0.651589
vt 0.284901 0.613272
vt 0.284842 0.613180
vt 0.262529 0.570674
vt 0.252106 0.525804
vt 0.253508 0.480593
s 1
usemtl Material.001
f 67/1/67 2/2/2 1/3/1 100/4/100
f 68/5/68 3/6/3 2/2/2 67/1/67
f 69/7/69 4/8/4 3/6/3 68/5/68
f 69/7/69 66/9/66 4/8/4
f 100/4/100 1/3/1 101/10/101
f 71/11/71 12/12/12 11/13/11 98/14/98
f 72/15/72 5/16/5 99/17/99
f 71/11/71 70/18/70 12/12/12
f 73/19/73 6/20/6 5/16/5 72/15/72
f 2/2/2 8/21/8 7/22/7 1/3/1
f 3/6/3 9/23/9 8/21/8 2/2/2
f 4/8/4 10/24/10 9/23/9 3/6/3
f 98/14/98 11/13/11 10/24/10 4/8/4 66/9/66
f 8/25/8 16/26/16 15/27/15 7/28/7
f 9/29/9 17/30/17 16/26/16 8/25/8
f 10/31/10 18/32/18 17/30/17 9/29/9
f 11/33/11 19/34/19 18/32/18 10/31/10
f 12/35/12 20/36/20 19/34/19 11/33/11
f 70/37/70 74/38/74 20/39/20 12/40/12
f 6/20/6 14/41/14 13/42/13 5/16/5
f 7/28/7 15/27/15 14/43/14 6/44/6
f 20/36/20 28/45/28 27/46/27 19/34/19
f 74/38/74 75/47/75 28/48/28 20/39/20
f 14/41/14 22/49/22 21/50/21 13/42/13
f 15/27/15 23/51/23 22/52/22 14/43/14
f 16/26/16 24/53/24 23/51/23 15/27/15
f 17/30/17 25/54/25 24/53/24 16/26/16
f 18/32/18 26/55/26 25/54/25 17/30/17
f 19/34/19 27/46/27 26/55/26 18/32/18
f 25/54/25 33/56/33 32/57/32 24/53/24
f 26/55/26 34/58/34 33/56/33 25/54/25
f 27/46/27 35/59/35 34/58/34 26/55/26
f 28/45/28 36/60/36 35/59/35 27/46/27
f 77/61/77 37/62/37 36/63/36 28/48/28 75/47/75
f 22/49/22 30/64/30 29/65/29 21/50/21
f 77/61/77 76/66/76 37/62/37
f 23/51/23 31/67/31 30/68/30 22/52/22
f 24/53/24 32/57/32 31/67/31 23/51/23
f 30/69/30 39/70/39 38/71/38 29/72/29
f 76/73/76 93/74/93 37/75/37
f 31/76/31 40/77/40 39/78/39 30/79/30
f 32/80/32 41/81/41 40/77/40 31/76/31
f 33/82/33 42/83/42 41/81/41 32/80/32
f 34/84/34 43/85/43 42/83/42 33/82/33
f 35/86/35 44/87/44 43/85/43 34/84/34
f 36/88/36 45/89/45 44/87/44 35/86/35
f 42/83/42 50/90/50 49/91/49 41/81/41
f 43/85/43 51/92/51 50/90/50 42/83/42
f 44/87/44 52/93/52 51/92/51 43/85/43
f 45/89/45 53/94/53 52/93/52 44/87/44
f 78/95/78 79/96/79 53/94/53 45/89/45
f 39/70/39 47/97/47 46/98/46 38/71/38
f 40/77/40 48/99/48 47/100/47 39/78/39
f 41/81/41 49/91/49 48/99/48 40/77/40
f 79/96/79 80/101/80 61/102/61 53/94/53
f 47/97/47 55/103/55 54/104/54 46/98/46
f 48/99/48 56/105/56 55/106/55 47/100/47
f 49/91/49 57/107/57 56/105/56 48/99/48
f 50/90/50 58/108/58 57/107/57 49/91/49
f 51/92/51 59/109/59 58/108/58 50/90/50
f 52/93/52 60/110/60 59/109/59 51/92/51
f 53/94/53 61/102/61 60/110/60 52/93/52
f 59/109/59 65/111/65 64/112/64 58/108/58
f 80/101/80 88/113/88 61/102/61
f 57/107/57 63/114/63 62/115/62 56/105/56
f 58/108/58 64/112/64 63/114/63 57/107/57
f 81/116/81 82/117/82 65/118/65
f 65/118/65 82/117/82 83/119/83 64/120/64
f 64/120/64 83/119/83 84/121/84 63/122/63
f 63/122/63 84/121/84 85/123/85 62/124/62
f 55/103/55 86/125/86 87/126/87 54/104/54
f 61/102/61 88/113/88 89/127/89 60/110/60
f 60/110/60 89/127/89 81/128/81 65/111/65 59/109/59
f 56/105/56 62/115/62 90/129/90 86/130/86 55/106/55
f 62/124/62 85/123/85 90/131/90
f 54/104/54 87/126/87 91/132/91
f 46/98/46 54/104/54 91/132/91 92/133/92
f 37/134/37 93/135/93 78/95/78 45/89/45 36/88/36
f 38/71/38 46/98/46 92/133/92 94/136/94
f 29/72/29 38/71/38 94/136/94 95/137/95
f 21/50/21 29/65/29 95/138/95 96/139/96
f 13/42/13 21/50/21 96/139/96 97/140/97
f 5/16/5 13/42/13 97/140/97 99/17/99
f 1/3/1 7/22/7 6/141/6 73/142/73 101/10/101
f 82/143/82 81/144/81 89/145/89 88/146/88 80/147/80 79/148/79 78/149/78 93/150/93 76/151/76 77/152/77 75/153/75 74/154/74 70/155/70 71/156/71 98/157/98 66/158/66 69/159/69 68/160/68 67/161/67 100/162/100 101/163/101 73/164/73 72/165/72 99/166/99 97/167/97 96/168/96 95/169/95 94/170/94 92/171/92 91/172/91 87/173/87 86/174/86 90/175/90 85/176/85 84/177/84 83/178/83
